<mxfile host="app.diagrams.net" modified="2022-10-17T14:14:26.758Z" agent="5.0 (Windows NT 10.0; Win64; x64) AppleWebKit/537.36 (KHTML, like Gecko) Chrome/106.0.0.0 Safari/537.36" etag="wcZmPz4T2eevp8pYjQ55" version="20.4.1" type="github">
  <diagram id="V4jYS8Cx0HoniuE-XB6-" name="Page-1">
    <mxGraphModel dx="2195" dy="1667" grid="1" gridSize="10" guides="1" tooltips="1" connect="1" arrows="1" fold="1" page="1" pageScale="1" pageWidth="850" pageHeight="1100" math="0" shadow="0">
      <root>
        <mxCell id="0" />
        <mxCell id="1" parent="0" />
        <mxCell id="VJMz_R_mShoQIZPHi_DP-19" style="edgeStyle=orthogonalEdgeStyle;rounded=0;orthogonalLoop=1;jettySize=auto;html=1;entryX=0;entryY=0.5;entryDx=0;entryDy=0;entryPerimeter=0;" parent="1" source="VJMz_R_mShoQIZPHi_DP-1" target="VJMz_R_mShoQIZPHi_DP-8" edge="1">
          <mxGeometry relative="1" as="geometry">
            <Array as="points">
              <mxPoint x="-410" y="410" />
              <mxPoint x="-410" y="190" />
            </Array>
          </mxGeometry>
        </mxCell>
        <mxCell id="VJMz_R_mShoQIZPHi_DP-22" style="edgeStyle=orthogonalEdgeStyle;rounded=0;orthogonalLoop=1;jettySize=auto;html=1;exitX=0;exitY=0.5;exitDx=0;exitDy=0;entryX=0;entryY=0.5;entryDx=0;entryDy=0;entryPerimeter=0;" parent="1" source="VJMz_R_mShoQIZPHi_DP-1" target="VJMz_R_mShoQIZPHi_DP-7" edge="1">
          <mxGeometry relative="1" as="geometry">
            <Array as="points">
              <mxPoint x="142" y="410" />
              <mxPoint x="-410" y="410" />
              <mxPoint x="-410" y="150" />
            </Array>
          </mxGeometry>
        </mxCell>
        <mxCell id="VJMz_R_mShoQIZPHi_DP-23" style="edgeStyle=orthogonalEdgeStyle;rounded=0;orthogonalLoop=1;jettySize=auto;html=1;exitX=0;exitY=0.5;exitDx=0;exitDy=0;entryX=0;entryY=0.5;entryDx=0;entryDy=0;entryPerimeter=0;" parent="1" source="VJMz_R_mShoQIZPHi_DP-1" target="VJMz_R_mShoQIZPHi_DP-6" edge="1">
          <mxGeometry relative="1" as="geometry">
            <Array as="points">
              <mxPoint x="142" y="410" />
              <mxPoint x="-410" y="410" />
              <mxPoint x="-410" y="110" />
            </Array>
          </mxGeometry>
        </mxCell>
        <mxCell id="VJMz_R_mShoQIZPHi_DP-24" style="edgeStyle=orthogonalEdgeStyle;rounded=0;orthogonalLoop=1;jettySize=auto;html=1;exitX=0;exitY=0.5;exitDx=0;exitDy=0;entryX=0;entryY=0.5;entryDx=0;entryDy=0;entryPerimeter=0;" parent="1" source="VJMz_R_mShoQIZPHi_DP-1" target="VJMz_R_mShoQIZPHi_DP-5" edge="1">
          <mxGeometry relative="1" as="geometry">
            <Array as="points">
              <mxPoint x="-410" y="410" />
              <mxPoint x="-410" y="70" />
            </Array>
          </mxGeometry>
        </mxCell>
        <mxCell id="VJMz_R_mShoQIZPHi_DP-25" style="edgeStyle=orthogonalEdgeStyle;rounded=0;orthogonalLoop=1;jettySize=auto;html=1;exitX=0;exitY=0.5;exitDx=0;exitDy=0;entryX=0;entryY=0.5;entryDx=0;entryDy=0;entryPerimeter=0;" parent="1" source="VJMz_R_mShoQIZPHi_DP-1" target="VJMz_R_mShoQIZPHi_DP-4" edge="1">
          <mxGeometry relative="1" as="geometry">
            <Array as="points">
              <mxPoint x="142" y="410" />
              <mxPoint x="-410" y="410" />
              <mxPoint x="-410" y="30" />
            </Array>
          </mxGeometry>
        </mxCell>
        <mxCell id="VJMz_R_mShoQIZPHi_DP-1" value="BenjaSIM simulation" style="swimlane;startSize=23;fillColor=#E5CCFF;" parent="1" vertex="1">
          <mxGeometry x="142" y="330" width="298" height="150" as="geometry" />
        </mxCell>
        <mxCell id="VJMz_R_mShoQIZPHi_DP-32" value="A simulated stroke patient. In the future this could be hundreds of parallel instances of different patients." style="rounded=0;whiteSpace=wrap;html=1;" parent="VJMz_R_mShoQIZPHi_DP-1" vertex="1">
          <mxGeometry x="54" y="50" width="190" height="80" as="geometry" />
        </mxCell>
        <mxCell id="VJMz_R_mShoQIZPHi_DP-2" value="Torque_Actor" style="swimlane;fillColor=#FF9999;" parent="1" vertex="1">
          <mxGeometry x="416" y="19" width="288" height="261" as="geometry" />
        </mxCell>
        <mxCell id="VJMz_R_mShoQIZPHi_DP-30" value="Deep Neural Net (DNN) which maps exo parameters and Activation_Net muscle activation predictions to knee/hip exo torques" style="rounded=0;whiteSpace=wrap;html=1;" parent="VJMz_R_mShoQIZPHi_DP-2" vertex="1">
          <mxGeometry x="84" y="151" width="190" height="91" as="geometry" />
        </mxCell>
        <mxCell id="Wi4BLHU90clKVonepebe-15" value="Reward function" style="rounded=0;whiteSpace=wrap;html=1;fillColor=#FFFFFF;" parent="VJMz_R_mShoQIZPHi_DP-2" vertex="1">
          <mxGeometry x="84" y="41" width="120" height="60" as="geometry" />
        </mxCell>
        <mxCell id="VJMz_R_mShoQIZPHi_DP-4" value="Joint positions" style="html=1;shadow=0;dashed=0;align=center;verticalAlign=middle;shape=mxgraph.arrows2.arrow;dy=0.6;dx=40;notch=0;fillColor=#E5CCFF;" parent="1" vertex="1">
          <mxGeometry x="-312" y="10" width="170" height="40" as="geometry" />
        </mxCell>
        <mxCell id="VJMz_R_mShoQIZPHi_DP-5" value="Joint velocities" style="html=1;shadow=0;dashed=0;align=center;verticalAlign=middle;shape=mxgraph.arrows2.arrow;dy=0.6;dx=40;notch=0;fillColor=#E5CCFF;" parent="1" vertex="1">
          <mxGeometry x="-312" y="50" width="170" height="40" as="geometry" />
        </mxCell>
        <mxCell id="VJMz_R_mShoQIZPHi_DP-6" value="Joint accelerations" style="html=1;shadow=0;dashed=0;align=center;verticalAlign=middle;shape=mxgraph.arrows2.arrow;dy=0.6;dx=40;notch=0;fillColor=#E5CCFF;" parent="1" vertex="1">
          <mxGeometry x="-312" y="90" width="170" height="40" as="geometry" />
        </mxCell>
        <mxCell id="VJMz_R_mShoQIZPHi_DP-7" value="Applied torque" style="html=1;shadow=0;dashed=0;align=center;verticalAlign=middle;shape=mxgraph.arrows2.arrow;dy=0.6;dx=40;notch=0;fillColor=#E5CCFF;" parent="1" vertex="1">
          <mxGeometry x="-312" y="130" width="170" height="40" as="geometry" />
        </mxCell>
        <mxCell id="VJMz_R_mShoQIZPHi_DP-8" value="Interaction torque" style="html=1;shadow=0;dashed=0;align=center;verticalAlign=middle;shape=mxgraph.arrows2.arrow;dy=0.6;dx=40;notch=0;fillColor=#E5CCFF;" parent="1" vertex="1">
          <mxGeometry x="-312" y="170" width="170" height="40" as="geometry" />
        </mxCell>
        <mxCell id="VJMz_R_mShoQIZPHi_DP-9" value="Anthropometric measures" style="html=1;shadow=0;dashed=0;align=center;verticalAlign=middle;shape=mxgraph.arrows2.arrow;dy=0.6;dx=40;notch=0;fillColor=#99FF99;" parent="1" vertex="1">
          <mxGeometry x="-312" y="210" width="170" height="40" as="geometry" />
        </mxCell>
        <mxCell id="Wi4BLHU90clKVonepebe-21" style="edgeStyle=orthogonalEdgeStyle;rounded=0;orthogonalLoop=1;jettySize=auto;html=1;entryX=0;entryY=0.5;entryDx=0;entryDy=0;" parent="1" source="VJMz_R_mShoQIZPHi_DP-10" target="Wi4BLHU90clKVonepebe-15" edge="1">
          <mxGeometry relative="1" as="geometry" />
        </mxCell>
        <mxCell id="VJMz_R_mShoQIZPHi_DP-10" value="Normalised vector of predicted muscle activations" style="html=1;shadow=0;dashed=0;align=center;verticalAlign=middle;shape=mxgraph.arrows2.arrow;dy=0.6;dx=40;notch=0;fillColor=#99FFFF;" parent="1" vertex="1">
          <mxGeometry x="130" y="129" width="286" height="40" as="geometry" />
        </mxCell>
        <mxCell id="Wi4BLHU90clKVonepebe-18" style="edgeStyle=orthogonalEdgeStyle;rounded=0;orthogonalLoop=1;jettySize=auto;html=1;exitX=1;exitY=0.5;exitDx=0;exitDy=0;exitPerimeter=0;entryX=0;entryY=0.5;entryDx=0;entryDy=0;" parent="1" source="VJMz_R_mShoQIZPHi_DP-11" target="Wi4BLHU90clKVonepebe-15" edge="1">
          <mxGeometry relative="1" as="geometry">
            <mxPoint x="470" y="70" as="targetPoint" />
          </mxGeometry>
        </mxCell>
        <mxCell id="VJMz_R_mShoQIZPHi_DP-11" value="Joint positions" style="html=1;shadow=0;dashed=0;align=center;verticalAlign=middle;shape=mxgraph.arrows2.arrow;dy=0.6;dx=40;notch=0;fillColor=#E5CCFF;" parent="1" vertex="1">
          <mxGeometry x="246" y="9" width="170" height="40" as="geometry" />
        </mxCell>
        <mxCell id="Wi4BLHU90clKVonepebe-17" style="edgeStyle=orthogonalEdgeStyle;rounded=0;orthogonalLoop=1;jettySize=auto;html=1;exitX=1;exitY=0.5;exitDx=0;exitDy=0;exitPerimeter=0;entryX=0;entryY=0.5;entryDx=0;entryDy=0;" parent="1" source="VJMz_R_mShoQIZPHi_DP-12" target="Wi4BLHU90clKVonepebe-15" edge="1">
          <mxGeometry relative="1" as="geometry">
            <mxPoint x="460" y="110" as="targetPoint" />
          </mxGeometry>
        </mxCell>
        <mxCell id="VJMz_R_mShoQIZPHi_DP-12" value="Joint velocities" style="html=1;shadow=0;dashed=0;align=center;verticalAlign=middle;shape=mxgraph.arrows2.arrow;dy=0.6;dx=40;notch=0;fillColor=#E5CCFF;" parent="1" vertex="1">
          <mxGeometry x="246" y="49" width="170" height="40" as="geometry" />
        </mxCell>
        <mxCell id="Wi4BLHU90clKVonepebe-19" style="edgeStyle=orthogonalEdgeStyle;rounded=0;orthogonalLoop=1;jettySize=auto;html=1;exitX=1;exitY=0.5;exitDx=0;exitDy=0;exitPerimeter=0;entryX=0;entryY=0.5;entryDx=0;entryDy=0;" parent="1" source="VJMz_R_mShoQIZPHi_DP-13" target="Wi4BLHU90clKVonepebe-15" edge="1">
          <mxGeometry relative="1" as="geometry" />
        </mxCell>
        <mxCell id="VJMz_R_mShoQIZPHi_DP-13" value="Joint accelerations" style="html=1;shadow=0;dashed=0;align=center;verticalAlign=middle;shape=mxgraph.arrows2.arrow;dy=0.6;dx=40;notch=0;fillColor=#E5CCFF;" parent="1" vertex="1">
          <mxGeometry x="246" y="89" width="170" height="40" as="geometry" />
        </mxCell>
        <mxCell id="Wi4BLHU90clKVonepebe-23" style="edgeStyle=orthogonalEdgeStyle;rounded=0;orthogonalLoop=1;jettySize=auto;html=1;entryX=0;entryY=0.5;entryDx=0;entryDy=0;" parent="1" source="VJMz_R_mShoQIZPHi_DP-14" target="Wi4BLHU90clKVonepebe-15" edge="1">
          <mxGeometry relative="1" as="geometry" />
        </mxCell>
        <mxCell id="VJMz_R_mShoQIZPHi_DP-14" value="Interaction torque" style="html=1;shadow=0;dashed=0;align=center;verticalAlign=middle;shape=mxgraph.arrows2.arrow;dy=0.6;dx=40;notch=0;fillColor=#E5CCFF;" parent="1" vertex="1">
          <mxGeometry x="246" y="211" width="170" height="40" as="geometry" />
        </mxCell>
        <mxCell id="VJMz_R_mShoQIZPHi_DP-15" value="Anthropometric measures" style="html=1;shadow=0;dashed=0;align=center;verticalAlign=middle;shape=mxgraph.arrows2.arrow;dy=0.6;dx=40;notch=0;fillColor=#99FF99;" parent="1" vertex="1">
          <mxGeometry x="246" y="251" width="170" height="40" as="geometry" />
        </mxCell>
        <mxCell id="VJMz_R_mShoQIZPHi_DP-16" value="Activation_Net" style="swimlane;startSize=23;fillColor=#99FFFF;" parent="1" vertex="1">
          <mxGeometry x="-140" y="18" width="270" height="262" as="geometry" />
        </mxCell>
        <mxCell id="Wi4BLHU90clKVonepebe-5" value="Loss Function or adverserial network model" style="rounded=0;whiteSpace=wrap;html=1;fillColor=#FFFFFF;" parent="VJMz_R_mShoQIZPHi_DP-16" vertex="1">
          <mxGeometry x="130" y="182" width="120" height="60" as="geometry" />
        </mxCell>
        <mxCell id="Wi4BLHU90clKVonepebe-9" value="Deep Neural Net (DNN) which maps exo parameters and patient measurements to muscle activations. Also outputs a confidence value, which represents how confident the Net is of it&#39;s activation predictions" style="rounded=0;whiteSpace=wrap;html=1;" parent="VJMz_R_mShoQIZPHi_DP-16" vertex="1">
          <mxGeometry x="40" y="50" width="190" height="120" as="geometry" />
        </mxCell>
        <mxCell id="VJMz_R_mShoQIZPHi_DP-17" value="Joint Torques" style="html=1;shadow=0;dashed=0;align=center;verticalAlign=middle;shape=mxgraph.arrows2.bendArrow;dy=15;dx=38;notch=0;arrowHead=55;rounded=0;flipH=1;flipV=1;fillColor=#FF9999;" parent="1" vertex="1">
          <mxGeometry x="440" y="280" width="160" height="110" as="geometry" />
        </mxCell>
        <mxCell id="VJMz_R_mShoQIZPHi_DP-33" style="edgeStyle=orthogonalEdgeStyle;rounded=0;orthogonalLoop=1;jettySize=auto;html=1;exitX=0.5;exitY=0;exitDx=0;exitDy=0;entryX=0;entryY=0.5;entryDx=0;entryDy=0;entryPerimeter=0;" parent="1" source="VJMz_R_mShoQIZPHi_DP-27" target="VJMz_R_mShoQIZPHi_DP-9" edge="1">
          <mxGeometry relative="1" as="geometry" />
        </mxCell>
        <mxCell id="VJMz_R_mShoQIZPHi_DP-27" value="Physiotherapist (configured at beginning of session)" style="rounded=0;whiteSpace=wrap;html=1;fillColor=#99FF99;" parent="1" vertex="1">
          <mxGeometry x="-400" y="259" width="120" height="51" as="geometry" />
        </mxCell>
        <mxCell id="VJMz_R_mShoQIZPHi_DP-35" value="&lt;font style=&quot;font-size: 36px;&quot;&gt;Training&lt;/font&gt;" style="rounded=0;whiteSpace=wrap;html=1;strokeColor=#000000;fillColor=#E1D5E7;" parent="1" vertex="1">
          <mxGeometry x="-280" y="-50" width="920" height="50" as="geometry" />
        </mxCell>
        <mxCell id="Wi4BLHU90clKVonepebe-6" style="edgeStyle=orthogonalEdgeStyle;rounded=0;orthogonalLoop=1;jettySize=auto;html=1;exitX=0;exitY=0;exitDx=15;exitDy=110;exitPerimeter=0;entryX=0;entryY=0.5;entryDx=0;entryDy=0;" parent="1" source="Wi4BLHU90clKVonepebe-1" target="Wi4BLHU90clKVonepebe-5" edge="1">
          <mxGeometry relative="1" as="geometry" />
        </mxCell>
        <mxCell id="Wi4BLHU90clKVonepebe-1" value="&#xa;&lt;span style=&quot;color: rgb(0, 0, 0); font-family: Helvetica; font-size: 12px; font-style: normal; font-variant-ligatures: normal; font-variant-caps: normal; font-weight: 400; letter-spacing: normal; orphans: 2; text-align: center; text-indent: 0px; text-transform: none; widows: 2; word-spacing: 0px; -webkit-text-stroke-width: 0px; background-color: rgb(248, 249, 250); text-decoration-thickness: initial; text-decoration-style: initial; text-decoration-color: initial; float: none; display: inline !important;&quot;&gt;predicted muscle activations&lt;/span&gt;&#xa;&#xa;" style="html=1;shadow=0;dashed=0;align=center;verticalAlign=middle;shape=mxgraph.arrows2.bendArrow;dy=15;dx=38;notch=0;arrowHead=47.8;rounded=1;flipH=0;flipV=1;fillColor=#99FFFF;" parent="1" vertex="1">
          <mxGeometry x="-50" y="280" width="192" height="110" as="geometry" />
        </mxCell>
        <mxCell id="Wi4BLHU90clKVonepebe-7" style="edgeStyle=orthogonalEdgeStyle;rounded=0;orthogonalLoop=1;jettySize=auto;html=1;exitX=0;exitY=0;exitDx=100;exitDy=20.1;exitPerimeter=0;entryX=1;entryY=0.5;entryDx=0;entryDy=0;" parent="1" source="Wi4BLHU90clKVonepebe-2" target="Wi4BLHU90clKVonepebe-5" edge="1">
          <mxGeometry relative="1" as="geometry" />
        </mxCell>
        <mxCell id="Wi4BLHU90clKVonepebe-2" value="Actual &lt;br&gt;muscle &lt;br&gt;activations" style="html=1;shadow=0;dashed=0;align=center;verticalAlign=middle;shape=mxgraph.arrows2.bendArrow;dy=15;dx=38;notch=0;arrowHead=40.2;rounded=1;fillColor=#E5CCFF;flipH=1;" parent="1" vertex="1">
          <mxGeometry x="130" y="200" width="100" height="130" as="geometry" />
        </mxCell>
        <mxCell id="Wi4BLHU90clKVonepebe-22" style="edgeStyle=orthogonalEdgeStyle;rounded=0;orthogonalLoop=1;jettySize=auto;html=1;entryX=0;entryY=0.5;entryDx=0;entryDy=0;" parent="1" source="Wi4BLHU90clKVonepebe-8" target="Wi4BLHU90clKVonepebe-15" edge="1">
          <mxGeometry relative="1" as="geometry" />
        </mxCell>
        <mxCell id="Wi4BLHU90clKVonepebe-8" value="Confidence" style="html=1;shadow=0;dashed=0;align=center;verticalAlign=middle;shape=mxgraph.arrows2.arrow;dy=0.6;dx=40;notch=0;fillColor=#99FFFF;" parent="1" vertex="1">
          <mxGeometry x="130" y="170" width="286" height="40" as="geometry" />
        </mxCell>
        <mxCell id="Wi4BLHU90clKVonepebe-24" style="edgeStyle=orthogonalEdgeStyle;rounded=0;orthogonalLoop=1;jettySize=auto;html=1;entryX=1;entryY=0.5;entryDx=0;entryDy=0;" parent="1" source="Wi4BLHU90clKVonepebe-12" target="Wi4BLHU90clKVonepebe-15" edge="1">
          <mxGeometry relative="1" as="geometry" />
        </mxCell>
        <mxCell id="Wi4BLHU90clKVonepebe-12" value="Ref joint positions" style="html=1;shadow=0;dashed=0;align=center;verticalAlign=middle;shape=mxgraph.arrows2.arrow;dy=0.6;dx=40;flipH=1;notch=0;fillColor=#FF9999;" parent="1" vertex="1">
          <mxGeometry x="704" y="7.5" width="136" height="45" as="geometry" />
        </mxCell>
        <mxCell id="Wi4BLHU90clKVonepebe-25" style="edgeStyle=orthogonalEdgeStyle;rounded=0;orthogonalLoop=1;jettySize=auto;html=1;entryX=1;entryY=0.5;entryDx=0;entryDy=0;" parent="1" source="Wi4BLHU90clKVonepebe-13" target="Wi4BLHU90clKVonepebe-15" edge="1">
          <mxGeometry relative="1" as="geometry" />
        </mxCell>
        <mxCell id="Wi4BLHU90clKVonepebe-13" value="Ref joint velocities" style="html=1;shadow=0;dashed=0;align=center;verticalAlign=middle;shape=mxgraph.arrows2.arrow;dy=0.6;dx=40;flipH=1;notch=0;fillColor=#FF9999;" parent="1" vertex="1">
          <mxGeometry x="704" y="52.5" width="136" height="45" as="geometry" />
        </mxCell>
        <mxCell id="Wi4BLHU90clKVonepebe-26" style="edgeStyle=orthogonalEdgeStyle;rounded=0;orthogonalLoop=1;jettySize=auto;html=1;entryX=1;entryY=0.5;entryDx=0;entryDy=0;" parent="1" source="Wi4BLHU90clKVonepebe-14" target="Wi4BLHU90clKVonepebe-15" edge="1">
          <mxGeometry relative="1" as="geometry" />
        </mxCell>
        <mxCell id="Wi4BLHU90clKVonepebe-14" value="Ref joint accelerations" style="html=1;shadow=0;dashed=0;align=center;verticalAlign=middle;shape=mxgraph.arrows2.arrow;dy=0.6;dx=40;flipH=1;notch=0;fillColor=#FF9999;" parent="1" vertex="1">
          <mxGeometry x="704" y="96" width="136" height="45" as="geometry" />
        </mxCell>
      </root>
    </mxGraphModel>
  </diagram>
</mxfile>
